<svg fill="none" height="24" viewBox="0 0 24 24" width="24" xmlns="http://www.w3.org/2000/svg" xmlns:xlink="http://www.w3.org/1999/xlink"><filter id="a" color-interpolation-filters="sRGB" filterUnits="userSpaceOnUse" height="16.6427" width="22.4281" x="0" y="5"><feFlood flood-opacity="0" result="BackgroundImageFix"/><feBlend in="SourceGraphic" in2="BackgroundImageFix" mode="normal" result="shape"/><feColorMatrix in="SourceAlpha" result="hardAlpha" type="matrix" values="0 0 0 0 0 0 0 0 0 0 0 0 0 0 0 0 0 0 127 0"/><feOffset dx=".25" dy=".25"/><feGaussianBlur stdDeviation=".5"/><feComposite in2="hardAlpha" k2="-1" k3="1" operator="arithmetic"/><feColorMatrix type="matrix" values="0 0 0 0 1 0 0 0 0 0.843137 0 0 0 0 0.345098 0 0 0 1 0"/><feBlend in2="shape" mode="normal" result="effect1_innerShadow_614_11600"/></filter><filter id="b" color-interpolation-filters="sRGB" filterUnits="userSpaceOnUse" height="4.32151" width="4.13739" x="11.1119" y="17.3212"><feFlood flood-opacity="0" result="BackgroundImageFix"/><feBlend in="SourceGraphic" in2="BackgroundImageFix" mode="normal" result="shape"/><feColorMatrix in="SourceAlpha" result="hardAlpha" type="matrix" values="0 0 0 0 0 0 0 0 0 0 0 0 0 0 0 0 0 0 127 0"/><feOffset dx=".25" dy=".25"/><feGaussianBlur stdDeviation=".5"/><feComposite in2="hardAlpha" k2="-1" k3="1" operator="arithmetic"/><feColorMatrix type="matrix" values="0 0 0 0 1 0 0 0 0 0.843137 0 0 0 0 0.345098 0 0 0 1 0"/><feBlend in2="shape" mode="normal" result="effect1_innerShadow_614_11600"/></filter><filter id="c" color-interpolation-filters="sRGB" filterUnits="userSpaceOnUse" height="5.08875" width="4.77277" x="17.6553" y="11.112"><feFlood flood-opacity="0" result="BackgroundImageFix"/><feBlend in="SourceGraphic" in2="BackgroundImageFix" mode="normal" result="shape"/><feColorMatrix in="SourceAlpha" result="hardAlpha" type="matrix" values="0 0 0 0 0 0 0 0 0 0 0 0 0 0 0 0 0 0 127 0"/><feOffset dx=".25" dy=".25"/><feGaussianBlur stdDeviation=".5"/><feComposite in2="hardAlpha" k2="-1" k3="1" operator="arithmetic"/><feColorMatrix type="matrix" values="0 0 0 0 1 0 0 0 0 0.843137 0 0 0 0 0.345098 0 0 0 1 0"/><feBlend in2="shape" mode="normal" result="effect1_innerShadow_614_11600"/></filter><filter id="d" color-interpolation-filters="sRGB" filterUnits="userSpaceOnUse" height="5.56066" width="5.16351" x="13.0342" y="14.9388"><feFlood flood-opacity="0" result="BackgroundImageFix"/><feBlend in="SourceGraphic" in2="BackgroundImageFix" mode="normal" result="shape"/><feColorMatrix in="SourceAlpha" result="hardAlpha" type="matrix" values="0 0 0 0 0 0 0 0 0 0 0 0 0 0 0 0 0 0 127 0"/><feOffset dx=".25" dy=".25"/><feGaussianBlur stdDeviation=".5"/><feComposite in2="hardAlpha" k2="-1" k3="1" operator="arithmetic"/><feColorMatrix type="matrix" values="0 0 0 0 1 0 0 0 0 0.843137 0 0 0 0 0.345098 0 0 0 1 0"/><feBlend in2="shape" mode="normal" result="effect1_innerShadow_614_11600"/></filter><filter id="e" color-interpolation-filters="sRGB" filterUnits="userSpaceOnUse" height="5.95443" width="5.48962" x="15.0187" y="12.6316"><feFlood flood-opacity="0" result="BackgroundImageFix"/><feBlend in="SourceGraphic" in2="BackgroundImageFix" mode="normal" result="shape"/><feColorMatrix in="SourceAlpha" result="hardAlpha" type="matrix" values="0 0 0 0 0 0 0 0 0 0 0 0 0 0 0 0 0 0 127 0"/><feOffset dx=".25" dy=".25"/><feGaussianBlur stdDeviation=".5"/><feComposite in2="hardAlpha" k2="-1" k3="1" operator="arithmetic"/><feColorMatrix type="matrix" values="0 0 0 0 1 0 0 0 0 0.843137 0 0 0 0 0.345098 0 0 0 1 0"/><feBlend in2="shape" mode="normal" result="effect1_innerShadow_614_11600"/></filter><filter id="f" color-interpolation-filters="sRGB" filterUnits="userSpaceOnUse" height="13.7018" width="17.5103" x="-.129028" y="9.00249"><feFlood flood-opacity="0" result="BackgroundImageFix"/><feBlend in="SourceGraphic" in2="BackgroundImageFix" mode="normal" result="shape"/><feGaussianBlur result="effect1_foregroundBlur_614_11600" stdDeviation="1.5"/></filter><filter id="g" color-interpolation-filters="sRGB" filterUnits="userSpaceOnUse" height="7" width="12" x="6" y="5"><feFlood flood-opacity="0" result="BackgroundImageFix"/><feBlend in="SourceGraphic" in2="BackgroundImageFix" mode="normal" result="shape"/><feGaussianBlur result="effect1_foregroundBlur_614_11600" stdDeviation="1"/></filter><filter id="h" color-interpolation-filters="sRGB" filterUnits="userSpaceOnUse" height="8.25577" width="10.0288" x="9.65448" y="3.85637"><feFlood flood-opacity="0" result="BackgroundImageFix"/><feBlend in="SourceGraphic" in2="BackgroundImageFix" mode="normal" result="shape"/><feGaussianBlur result="effect1_foregroundBlur_614_11600" stdDeviation="1"/></filter><filter id="i" color-interpolation-filters="sRGB" filterUnits="userSpaceOnUse" height="4.70525" width="4.19611" x="1.85321" y="12.5488"><feFlood flood-opacity="0" result="BackgroundImageFix"/><feBlend in="SourceGraphic" in2="BackgroundImageFix" mode="normal" result="shape"/><feColorMatrix in="SourceAlpha" result="hardAlpha" type="matrix" values="0 0 0 0 0 0 0 0 0 0 0 0 0 0 0 0 0 0 127 0"/><feOffset dx=".5" dy=".5"/><feGaussianBlur stdDeviation="1"/><feComposite in2="hardAlpha" k2="-1" k3="1" operator="arithmetic"/><feColorMatrix type="matrix" values="0 0 0 0 1 0 0 0 0 0.843137 0 0 0 0 0.345098 0 0 0 1 0"/><feBlend in2="shape" mode="normal" result="effect1_innerShadow_614_11600"/></filter><filter id="j" color-interpolation-filters="sRGB" filterUnits="userSpaceOnUse" height="5.56795" width="4.69415" x="9.34308" y="16.7134"><feFlood flood-opacity="0" result="BackgroundImageFix"/><feBlend in="SourceGraphic" in2="BackgroundImageFix" mode="normal" result="shape"/><feColorMatrix in="SourceAlpha" result="hardAlpha" type="matrix" values="0 0 0 0 0 0 0 0 0 0 0 0 0 0 0 0 0 0 127 0"/><feOffset dx=".5" dy=".5"/><feGaussianBlur stdDeviation="1"/><feComposite in2="hardAlpha" k2="-1" k3="1" operator="arithmetic"/><feColorMatrix type="matrix" values="0 0 0 0 1 0 0 0 0 0.843137 0 0 0 0 0.345098 0 0 0 1 0"/><feBlend in2="shape" mode="normal" result="effect1_innerShadow_614_11600"/></filter><filter id="k" color-interpolation-filters="sRGB" filterUnits="userSpaceOnUse" height="6.09858" width="5.00055" x="4.14685" y="13.1828"><feFlood flood-opacity="0" result="BackgroundImageFix"/><feBlend in="SourceGraphic" in2="BackgroundImageFix" mode="normal" result="shape"/><feColorMatrix in="SourceAlpha" result="hardAlpha" type="matrix" values="0 0 0 0 0 0 0 0 0 0 0 0 0 0 0 0 0 0 127 0"/><feOffset dx=".5" dy=".5"/><feGaussianBlur stdDeviation="1"/><feComposite in2="hardAlpha" k2="-1" k3="1" operator="arithmetic"/><feColorMatrix type="matrix" values="0 0 0 0 1 0 0 0 0 0.843137 0 0 0 0 0.345098 0 0 0 1 0"/><feBlend in2="shape" mode="normal" result="effect1_innerShadow_614_11600"/></filter><filter id="l" color-interpolation-filters="sRGB" filterUnits="userSpaceOnUse" height="6.54134" width="5.25616" x="6.48932" y="14.6828"><feFlood flood-opacity="0" result="BackgroundImageFix"/><feBlend in="SourceGraphic" in2="BackgroundImageFix" mode="normal" result="shape"/><feColorMatrix in="SourceAlpha" result="hardAlpha" type="matrix" values="0 0 0 0 0 0 0 0 0 0 0 0 0 0 0 0 0 0 127 0"/><feOffset dx=".5" dy=".5"/><feGaussianBlur stdDeviation="1"/><feComposite in2="hardAlpha" k2="-1" k3="1" operator="arithmetic"/><feColorMatrix type="matrix" values="0 0 0 0 1 0 0 0 0 0.843137 0 0 0 0 0.345098 0 0 0 1 0"/><feBlend in2="shape" mode="normal" result="effect1_innerShadow_614_11600"/></filter><filter id="m" color-interpolation-filters="sRGB" filterUnits="userSpaceOnUse" height="3.5" width="6" x="7.5" y="4.5"><feFlood flood-opacity="0" result="BackgroundImageFix"/><feBlend in="SourceGraphic" in2="BackgroundImageFix" mode="normal" result="shape"/><feGaussianBlur result="effect1_foregroundBlur_614_11600" stdDeviation=".5"/></filter><radialGradient id="n" cx="0" cy="0" gradientTransform="matrix(0 9 -12.1763 0 13.5 9)" gradientUnits="userSpaceOnUse" r="1"><stop offset="0" stop-color="#ffd758"/><stop offset=".5" stop-color="#ffc612"/><stop offset="1" stop-color="#ffb112"/></radialGradient><linearGradient id="o"><stop offset="0" stop-color="#ffc612"/><stop offset="1" stop-color="#ffa012" stop-opacity="0"/></linearGradient><linearGradient id="p" gradientUnits="userSpaceOnUse" x1="4" x2="9" xlink:href="#o" y1="18.5" y2="15"/><linearGradient id="q" gradientUnits="userSpaceOnUse" x1="18" x2="14.5" xlink:href="#o" y1="20.5" y2="14"/><linearGradient id="r" gradientUnits="userSpaceOnUse" x1="18.5" x2="15" y1="18.5" y2="14.5"><stop offset="0" stop-color="#d9d9d9"/><stop offset="1" stop-color="#d9d9d9" stop-opacity="0"/></linearGradient><linearGradient id="s"><stop offset=".184776" stop-color="#ffd758"/><stop offset=".622146" stop-color="#ffc612"/><stop offset="1" stop-color="#ffa012"/></linearGradient><radialGradient id="t" cx="0" cy="0" gradientTransform="matrix(-1.30700187 -1.5782667 .79636929 -.65949319 13.6245 19.456)" gradientUnits="userSpaceOnUse" r="1" xlink:href="#s"/><linearGradient id="u"><stop offset="0" stop-color="#690d00"/><stop offset="1" stop-color="#ffc612" stop-opacity="0"/></linearGradient><linearGradient id="v" gradientUnits="userSpaceOnUse" x1="11.6575" x2="12.6843" xlink:href="#u" y1="20.3481" y2="19.3789"/><radialGradient id="w" cx="0" cy="0" gradientTransform="matrix(-1.60350879 -1.93631287 .79636929 -.65949319 20.5491 13.7071)" gradientUnits="userSpaceOnUse" r="1" xlink:href="#s"/><linearGradient id="x" gradientUnits="userSpaceOnUse" x1="18.5" x2="19.5391" xlink:href="#u" y1="14.5" y2="13.5425"/><radialGradient id="y" cx="0" cy="0" gradientTransform="matrix(-1.78587892 -2.15653344 .79636929 -.65949319 16.1625 17.8171)" gradientUnits="userSpaceOnUse" r="1" xlink:href="#s"/><linearGradient id="z" gradientUnits="userSpaceOnUse" x1="14.0628" x2="15.1074" xlink:href="#u" y1="18.549" y2="17.5969"/><radialGradient id="A" cx="0" cy="0" gradientTransform="matrix(-1.93805494 -2.3402932 .79636929 -.65949319 18.3426 15.7462)" gradientUnits="userSpaceOnUse" r="1" xlink:href="#s"/><linearGradient id="B" gradientUnits="userSpaceOnUse" x1="16.2008" x2="17.2491" xlink:href="#u" y1="16.4272" y2="15.4787"/><linearGradient id="C"><stop offset="0" stop-color="#ffd758"/><stop offset=".5" stop-color="#ffc612"/><stop offset="1" stop-color="#eda30c"/><stop offset="1" stop-color="#ffa012"/></linearGradient><radialGradient id="D" cx="0" cy="0" gradientTransform="matrix(-1.024595 1.7746506 -.89546161 -.516995 4.24558 14.4586)" gradientUnits="userSpaceOnUse" r="1" xlink:href="#C"/><linearGradient id="E"><stop offset="0" stop-color="#ffa012"/><stop offset="1" stop-color="#ffa012" stop-opacity="0"/></linearGradient><linearGradient id="F" gradientUnits="userSpaceOnUse" x1="2.03758" x2="3.98614" xlink:href="#E" y1="13.033" y2="14.158"/><linearGradient id="G"><stop offset="0" stop-color="#a04a06"/><stop offset="1" stop-color="#ffa012" stop-opacity="0"/></linearGradient><linearGradient id="H" gradientUnits="userSpaceOnUse" x1=".508555" x2="5.14922" xlink:href="#G" y1="15.6813" y2="12.9088"/><radialGradient id="I" cx="0" cy="0" gradientTransform="matrix(-1.257035 2.17724849 -.89546161 -.516995 12.0343 18.9683)" gradientUnits="userSpaceOnUse" r="1" xlink:href="#C"/><linearGradient id="J" gradientUnits="userSpaceOnUse" x1="9.84108" x2="11.7896" xlink:href="#E" y1="17.517" y2="18.642"/><linearGradient id="K" gradientUnits="userSpaceOnUse" x1="7.96518" x2="13.6161" xlink:href="#G" y1="20.7662" y2="18.0558"/><radialGradient id="L" cx="0" cy="0" gradientTransform="matrix(-1.4 2.42487113 -.89546161 -.516995 7.02189 15.6499)" gradientUnits="userSpaceOnUse" r="1" xlink:href="#C"/><linearGradient id="M" gradientUnits="userSpaceOnUse" x1="4.83782" x2="6.78638" xlink:href="#E" y1="14.1829" y2="15.3079"/><linearGradient id="N" gradientUnits="userSpaceOnUse" x1="2.74857" x2="8.95474" xlink:href="#G" y1="17.8015" y2="15.2059"/><radialGradient id="O" cx="0" cy="0" gradientTransform="matrix(-1.519295 2.63149613 -.89546161 -.516995 9.51772 17.327)" gradientUnits="userSpaceOnUse" r="1" xlink:href="#C"/><linearGradient id="P" gradientUnits="userSpaceOnUse" x1="7.34126" x2="9.28981" xlink:href="#E" y1="15.8468" y2="16.9718"/><linearGradient id="Q" gradientUnits="userSpaceOnUse" x1="5.07398" x2="11.7029" xlink:href="#G" y1="19.7738" y2="17.3066"/><radialGradient id="R" cx="0" cy="0" gradientTransform="matrix(12 0 0 7.09168 12 6)" gradientUnits="userSpaceOnUse" r="1"><stop offset="0" stop-color="#ffd758"/><stop offset=".5" stop-color="#ffc612"/><stop offset="1" stop-color="#ffb012"/></radialGradient><linearGradient id="S" gradientUnits="userSpaceOnUse" x1="11" x2="13" y1="4" y2="6"><stop offset="0" stop-color="#ffd758"/><stop offset="1" stop-color="#ffd758" stop-opacity="0"/></linearGradient><linearGradient id="T" gradientUnits="userSpaceOnUse" x1="22" x2="22" y1="17" y2="8.5"><stop offset="0" stop-color="#b96523"/><stop offset="1" stop-color="#eda30c" stop-opacity="0"/></linearGradient><clipPath id="U"><path d="m0 0h24v24h-24z"/></clipPath><mask id="V" height="13" maskUnits="userSpaceOnUse" width="17" x="6" y="9"><path d="m6 9h17v13h-17z" fill="url(#r)"/></mask><g clip-path="url(#U)"><g clip-rule="evenodd" fill-rule="evenodd" filter="url(#a)"><path d="m20.842 12.2969-2.192-2.81829c-.7585-.97529-1.7098-1.78394-2.7945-2.37559l-2.4863-1.35618c-.8984-.49005-1.9055-.74684-2.9288-.74684-.93923 0-1.8574.278-2.63885.79897l-.11405.07603c-1.10034.73356-2.39318 1.125-3.71562 1.125h-2.97188c-.552285 0-1 .44772-1 1v6c0 .5523.447715 1 1 1h2l8.2111 3.2844c-.1869.489-.112 1.0617.2456 1.4936l.8873 1.0714c.5284.6381 1.474.727 2.112.1986s.727-1.474.1986-2.112l-.2546-.3074.8924 1.0776c.5284.638 1.474.7269 2.112.1986.637-.5275.7267-1.4708.2013-2.1088.5289.6351 1.4723.7228 2.1093.1953.638-.5284.7269-1.4739.1985-2.112l-.3907-.4719c.5283.638 1.4739.7269 2.112.1986.638-.5284.7269-1.474.1985-2.112z" fill="url(#n)"/><path d="m20.842 12.2969-2.192-2.81829c-.7585-.97529-1.7098-1.78394-2.7945-2.37559l-2.4863-1.35618c-.8984-.49005-1.9055-.74684-2.9288-.74684-.93923 0-1.8574.278-2.63885.79897l-.11405.07603c-1.10034.73356-2.39318 1.125-3.71562 1.125h-2.97188c-.552285 0-1 .44772-1 1v6c0 .5523.447715 1 1 1h2l8.2111 3.2844c-.1869.489-.112 1.0617.2456 1.4936l.8873 1.0714c.5284.6381 1.474.727 2.112.1986s.727-1.474.1986-2.112l-.2546-.3074.8924 1.0776c.5284.638 1.474.7269 2.112.1986.637-.5275.7267-1.4708.2013-2.1088.5289.6351 1.4723.7228 2.1093.1953.638-.5284.7269-1.4739.1985-2.112l-.3907-.4719c.5283.638 1.4739.7269 2.112.1986.638-.5284.7269-1.474.1985-2.112z" fill="url(#p)"/><path d="m20.842 12.2969-2.192-2.81829c-.7585-.97529-1.7098-1.78394-2.7945-2.37559l-2.4863-1.35618c-.8984-.49005-1.9055-.74684-2.9288-.74684-.93923 0-1.8574.278-2.63885.79897l-.11405.07603c-1.10034.73356-2.39318 1.125-3.71562 1.125h-2.97188c-.552285 0-1 .44772-1 1v6c0 .5523.447715 1 1 1h2l8.2111 3.2844c-.1869.489-.112 1.0617.2456 1.4936l.8873 1.0714c.5284.6381 1.474.727 2.112.1986s.727-1.474.1986-2.112l-.2546-.3074.8924 1.0776c.5284.638 1.474.7269 2.112.1986.637-.5275.7267-1.4708.2013-2.1088.5289.6351 1.4723.7228 2.1093.1953.638-.5284.7269-1.4739.1985-2.112l-.3907-.4719c.5283.638 1.4739.7269 2.112.1986.638-.5284.7269-1.474.1985-2.112z" fill="url(#q)"/></g><g mask="url(#V)"><g filter="url(#b)"><path d="m14.456 21.048c.638-.5284.7269-1.474.1985-2.112l-.8872-1.0714c-.5284-.6381-1.474-.727-2.112-.1986-.6381.5284-.727 1.4739-.1986 2.112l.8873 1.0714c.5284.6381 1.4739.727 2.112.1986z" fill="url(#t)"/><path d="m14.456 21.048c.638-.5284.7269-1.474.1985-2.112l-.8872-1.0714c-.5284-.6381-1.474-.727-2.112-.1986-.6381.5284-.727 1.4739-.1986 2.112l.8873 1.0714c.5284.6381 1.4739.727 2.112.1986z" fill="url(#v)"/></g><g filter="url(#c)"><path d="m21.6348 15.606c.638-.5284.7269-1.474.1985-2.112l-1.5226-1.8387c-.5284-.6381-1.474-.727-2.112-.1986-.6381.5284-.727 1.474-.1986 2.112l1.5226 1.8387c.5284.638 1.474.7269 2.1121.1986z" fill="url(#w)"/><path d="m21.6348 15.606c.638-.5284.7269-1.474.1985-2.112l-1.5226-1.8387c-.5284-.6381-1.474-.727-2.112-.1986-.6381.5284-.727 1.474-.1986 2.112l1.5226 1.8387c.5284.638 1.474.7269 2.1121.1986z" fill="url(#x)"/></g><g filter="url(#d)"><path d="m17.4044 19.9048c.6381-.5284.727-1.474.1986-2.1121l-1.9135-2.3105c-.5283-.6381-1.4739-.727-2.112-.1986-.638.5284-.7269 1.474-.1985 2.112l1.9134 2.3106c.5284.638 1.474.7269 2.112.1986z" fill="url(#y)"/><path d="m17.4044 19.9048c.6381-.5284.727-1.474.1986-2.1121l-1.9135-2.3105c-.5283-.6381-1.4739-.727-2.112-.1986-.638.5284-.7269 1.474-.1985 2.112l1.9134 2.3106c.5284.638 1.474.7269 2.112.1986z" fill="url(#z)"/></g><g filter="url(#e)"><path d="m19.715 17.9913c.638-.5284.7269-1.4739.1985-2.112l-2.2395-2.7043c-.5284-.6381-1.474-.727-2.112-.1986-.6381.5284-.727 1.4739-.1986 2.112l2.2395 2.7043c.5284.6381 1.474.727 2.1121.1986z" fill="url(#A)"/><path d="m19.715 17.9913c.638-.5284.7269-1.4739.1985-2.112l-2.2395-2.7043c-.5284-.6381-1.474-.727-2.112-.1986-.6381.5284-.727 1.4739-.1986 2.112l2.2395 2.7043c.5284.6381 1.474.727 2.1121.1986z" fill="url(#B)"/></g></g><g filter="url(#f)"><ellipse cx="8.62613" cy="15.8534" fill="#a04a06" rx="6.5" ry="2.38412" transform="matrix(.8660254 .5 -.5 .8660254 9.082382 -2.189112)"/></g><g filter="url(#g)"><ellipse cx="12" cy="8.5" fill="#a04a06" rx="4" ry="1.5"/></g><g filter="url(#h)"><ellipse cx="14.6689" cy="7.98425" fill="#a04a06" rx="3.37042" ry="1.5" transform="matrix(.8660254 .5 -.5 .8660254 5.957385 -6.264763)"/></g><g filter="url(#i)"><path d="m4.79905 12.75c.71743.4142.96325 1.3316.54903 2.049l-.69556 1.2048c-.41421.7174-1.3316.9632-2.04904.549s-.96325-1.3316-.54904-2.049l.69557-1.2048c.41421-.7174 1.3316-.9632 2.04904-.549z" fill="url(#D)"/><path d="m4.79905 12.75c.71743.4142.96325 1.3316.54903 2.049l-.69556 1.2048c-.41421.7174-1.3316.9632-2.04904.549s-.96325-1.3316-.54904-2.049l.69557-1.2048c.41421-.7174 1.3316-.9632 2.04904-.549z" fill="url(#F)"/><path d="m4.79905 12.75c.71743.4142.96325 1.3316.54903 2.049l-.69556 1.2048c-.41421.7174-1.3316.9632-2.04904.549s-.96325-1.3316-.54904-2.049l.69557-1.2048c.41421-.7174 1.3316-.9632 2.04904-.549z" fill="url(#H)"/></g><g filter="url(#j)"><path d="m12.787 16.9146c.7174.4142.9632 1.3316.549 2.049l-1.1936 2.0675c-.4143.7174-1.3316.9632-2.0491.549-.71742-.4142-.96323-1.3316-.54902-2.049l1.19362-2.0675c.4142-.7174 1.3316-.9632 2.0491-.549z" fill="url(#I)"/><path d="m12.787 16.9146c.7174.4142.9632 1.3316.549 2.049l-1.1936 2.0675c-.4143.7174-1.3316.9632-2.0491.549-.71742-.4142-.96323-1.3316-.54902-2.049l1.19362-2.0675c.4142-.7174 1.3316-.9632 2.0491-.549z" fill="url(#J)"/><path d="m12.787 16.9146c.7174.4142.9632 1.3316.549 2.049l-1.1936 2.0675c-.4143.7174-1.3316.9632-2.0491.549-.71742-.4142-.96323-1.3316-.54902-2.049l1.19362-2.0675c.4142-.7174 1.3316-.9632 2.0491-.549z" fill="url(#K)"/></g><g filter="url(#k)"><path d="m7.89713 13.384c.71744.4142.96325 1.3316.54904 2.049l-1.5 2.5981c-.41422.7174-1.3316.9632-2.04904.549s-.96325-1.3316-.54904-2.049l1.5-2.5981c.41421-.7174 1.3316-.9632 2.04904-.549z" fill="url(#L)"/><path d="m7.89713 13.384c.71744.4142.96325 1.3316.54904 2.049l-1.5 2.5981c-.41422.7174-1.3316.9632-2.04904.549s-.96325-1.3316-.54904-2.049l1.5-2.5981c.41421-.7174 1.3316-.9632 2.04904-.549z" fill="url(#M)"/><path d="m7.89713 13.384c.71744.4142.96325 1.3316.54904 2.049l-1.5 2.5981c-.41422.7174-1.3316.9632-2.04904.549s-.96325-1.3316-.54904-2.049l1.5-2.5981c.41421-.7174 1.3316-.9632 2.04904-.549z" fill="url(#N)"/></g><g filter="url(#l)"><path d="m10.4952 14.884c.7175.4142.9633 1.3316.5491 2.049l-1.75568 3.0409c-.41421.7174-1.3316.9632-2.04904.549s-.96325-1.3316-.54904-2.049l1.75563-3.0409c.41422-.7174 1.3316-.9632 2.04903-.549z" fill="url(#O)"/><path d="m10.4952 14.884c.7175.4142.9633 1.3316.5491 2.049l-1.75568 3.0409c-.41421.7174-1.3316.9632-2.04904.549s-.96325-1.3316-.54904-2.049l1.75563-3.0409c.41422-.7174 1.3316-.9632 2.04903-.549z" fill="url(#P)"/><path d="m10.4952 14.884c.7175.4142.9633 1.3316.5491 2.049l-1.75568 3.0409c-.41421.7174-1.3316.9632-2.04904.549s-.96325-1.3316-.54904-2.049l1.75563-3.0409c.41422-.7174 1.3316-.9632 2.04903-.549z" fill="url(#Q)"/></g><g clip-rule="evenodd" fill-rule="evenodd"><path d="m14.2214 4.2526c1.727-.157 3.4121.59212 4.4527 1.97947l1.0259 1.36793c.1889.25181.4852.4.8.4h2.5c.5523 0 1 .44772 1 1v1 2.0109 3.9891c0 .5523-.4477 1-1 1h-2.7508c.0428-.3894-.0661-.7951-.3357-1.1207l-1.1097-1.34.7189.8681c.5284.638 1.474.7269 2.1121.1986.638-.5284.7269-1.474.1985-2.112l-.991-1.1967-.1694-.2179c-1.4755-1.5076-3.2668-2.67713-5.2507-3.42108l-.2927-.10976c-.0838-.03142-.1758-.03312-.2607-.00483l-1.0136.33788c-1.2213.40709-2.5303.534-3.8077.37433-1.16247-.14531-2.0475-1.13508-2.0475-2.30659 0-.27787.14889-.53443.39015-.67229l2.54315-1.45321c.3734-.2134.7884-.344 1.2168-.38295z" fill="url(#R)"/><path d="m14.2214 4.2526c1.727-.157 3.4121.59212 4.4527 1.97947l1.0259 1.36793c.1889.25181.4852.4.8.4h2.5c.5523 0 1 .44772 1 1v1 2.0109 3.9891c0 .5523-.4477 1-1 1h-2.7508c.0428-.3894-.0661-.7951-.3357-1.1207l-1.1097-1.34.7189.8681c.5284.638 1.474.7269 2.1121.1986.638-.5284.7269-1.474.1985-2.112l-.991-1.1967-.1694-.2179c-1.4755-1.5076-3.2668-2.67713-5.2507-3.42108l-.2927-.10976c-.0838-.03142-.1758-.03312-.2607-.00483l-1.0136.33788c-1.2213.40709-2.5303.534-3.8077.37433-1.16247-.14531-2.0475-1.13508-2.0475-2.30659 0-.27787.14889-.53443.39015-.67229l2.54315-1.45321c.3734-.2134.7884-.344 1.2168-.38295z" fill="url(#S)"/><path d="m14.2214 4.2526c1.727-.157 3.4121.59212 4.4527 1.97947l1.0259 1.36793c.1889.25181.4852.4.8.4h2.5c.5523 0 1 .44772 1 1v1 2.0109 3.9891c0 .5523-.4477 1-1 1h-2.7508c.0428-.3894-.0661-.7951-.3357-1.1207l-1.1097-1.34.7189.8681c.5284.638 1.474.7269 2.1121.1986.638-.5284.7269-1.474.1985-2.112l-.991-1.1967-.1694-.2179c-1.4755-1.5076-3.2668-2.67713-5.2507-3.42108l-.2927-.10976c-.0838-.03142-.1758-.03312-.2607-.00483l-1.0136.33788c-1.2213.40709-2.5303.534-3.8077.37433-1.16247-.14531-2.0475-1.13508-2.0475-2.30659 0-.27787.14889-.53443.39015-.67229l2.54315-1.45321c.3734-.2134.7884-.344 1.2168-.38295z" fill="url(#T)"/></g><g filter="url(#m)" opacity=".5"><path d="m11 7-2.5-.5 2-1h2z" fill="#f5ab11"/></g></g></svg>