<svg width="188" height="14" viewBox="0 0 188 14" fill="none" xmlns="http://www.w3.org/2000/svg">
<path d="M175.744 13.7828H177.239V2.64416L186.015 13.7828H187.241V0.191606H185.746V11.0876L177.188 0.191606H175.757V13.7828H175.744ZM157.925 8.8011L161.029 1.89051L164.12 8.8011H157.925ZM154.131 13.7828H155.702L157.311 10.1934H164.708L166.304 13.7828H167.952L161.757 0.0894162H160.326L154.131 13.7828ZM133.335 13.7828H134.829V2.79745L139.786 10.0529H139.862L144.819 2.7719V13.7828H146.351V0.191606H144.793L139.837 7.61314L134.893 0.191606H133.335V13.7828ZM118.926 14C122.324 14 124.597 11.9434 124.597 7.98358V0.191606H123.064V8.09854C123.064 11.0748 121.468 12.5821 118.964 12.5821C116.384 12.5821 114.812 10.9343 114.812 7.99635V0.191606H113.28V8.09854C113.28 11.9434 115.566 14 118.926 14ZM93.6205 13.7828H95.1533V7.66423H102.997V13.7828H104.529V0.191606H102.997V6.23358H95.1533V0.191606H93.6205V13.7828ZM76.0051 7.12774V1.60949H80.195C82.3921 1.60949 83.6695 2.61861 83.6695 4.29197V4.33029C83.6695 6.08029 82.2133 7.12774 80.1695 7.12774H76.0051ZM74.4723 13.7828H76.0051V8.5073H79.8884L83.8356 13.7828H85.7134L81.5363 8.22628C83.6695 7.84307 85.228 6.5146 85.228 4.26642V4.2281C85.228 3.15511 84.8447 2.20985 84.1805 1.54562C83.3246 0.689781 81.9834 0.191606 80.3227 0.191606H74.4723V13.7828ZM56.3588 13.7828H66.2842V12.3905H57.8916V7.62591H65.3133V6.23358H57.8916V1.59672H66.182V0.191606H56.3588V13.7828ZM39.8037 7.58759V1.60949H43.2399C45.437 1.60949 46.8933 2.61861 46.8933 4.56022V4.59854C46.8933 6.38686 45.4115 7.58759 43.1633 7.58759H39.8037ZM38.2708 13.7828H39.8037V8.9927H43.0994C45.9863 8.9927 48.4389 7.47263 48.4389 4.54744V4.50912C48.4389 1.82664 46.4206 0.20438 43.3549 0.20438H38.2708V13.7828ZM23.8618 14C27.2597 14 29.5334 11.9434 29.5334 7.98358V0.191606H28.0006V8.09854C28.0006 11.0748 26.4038 12.5821 23.9001 12.5821C21.3198 12.5821 19.7486 10.9343 19.7486 7.99635V0.191606H18.2157V8.09854C18.2157 11.9434 20.5022 14 23.8618 14ZM5.55668 13.9745C8.25199 13.9745 10.1936 12.4544 10.1936 10.1296V10.0912C10.1936 8.00912 8.80127 6.91058 5.76106 6.24635C2.77195 5.60766 2.06938 4.89234 2.06938 3.60219V3.57664C2.06938 2.35036 3.19349 1.37956 4.9563 1.37956C6.34867 1.37956 7.61329 1.82664 8.87791 2.86131L9.77209 1.67336C8.40527 0.562044 6.98736 0 5.0074 0C2.42705 0 0.536507 1.57117 0.536507 3.70438V3.7427C0.536507 5.9781 1.96719 6.98723 5.09682 7.66423C7.94541 8.2646 8.63521 8.97993 8.63521 10.2445V10.2828C8.63521 11.6241 7.43445 12.5949 5.60777 12.5949C3.73 12.5949 2.36319 11.9562 0.945274 10.6788L0 11.8029C1.63507 13.2591 3.39788 13.9745 5.55668 13.9745Z" fill="white"/>
</svg>
