<svg width="100" height="100" viewBox="0 0 100 100" fill="none" xmlns="http://www.w3.org/2000/svg">
<rect y="12.5" width="100" height="75" rx="8.33333" fill="url(#paint0_radial_199_2975)"/>
<rect y="25" width="100" height="16.6667" fill="url(#paint1_linear_199_2975)"/>
<rect x="8.33398" y="50" width="58.3333" height="16.6667" fill="white"/>
<rect x="79.166" y="66.6666" width="12.5" height="12.5" rx="4.16667" fill="#FFC612"/>
<path d="M12.5 62.5C15.9845 61.1175 25.3131 54.4806 24.1149 50.157C22.9167 45.8333 17.5019 64.2064 24.5207 60.158C26.2817 59.1423 27.7275 56.5341 29.2926 54.9887C29.3517 54.9303 31.337 53.1305 31.2308 54.092C31.0589 55.6468 28.0558 61.8146 30.664 60.2213C32.884 58.8651 35.0791 57.3032 37.3671 56.223C39.3784 55.2734 36.3528 58.7021 37.8568 58.7021C40.7211 58.7021 43.0647 61.2486 45.8333 60.4167C47.6804 59.8617 49.8799 58.4478 51.7597 58.3751C54.7522 58.2594 59.7872 59.3888 62.5 57.7527" stroke="url(#paint2_linear_199_2975)" stroke-width="4.16667" stroke-linecap="round"/>
<defs>
<radialGradient id="paint0_radial_199_2975" cx="0" cy="0" r="1" gradientUnits="userSpaceOnUse" gradientTransform="translate(50 50) rotate(90) scale(37.5 50)">
<stop stop-color="#D9E2E8"/>
<stop offset="1" stop-color="#8A9195"/>
</radialGradient>
<linearGradient id="paint1_linear_199_2975" x1="-6.51926e-07" y1="33.3333" x2="100" y2="33.3333" gradientUnits="userSpaceOnUse">
<stop stop-color="#33185D"/>
<stop offset="0.5" stop-color="#7344BE"/>
<stop offset="1" stop-color="#33185D"/>
</linearGradient>
<linearGradient id="paint2_linear_199_2975" x1="12.5" y1="62.5" x2="62.5" y2="62.5" gradientUnits="userSpaceOnUse">
<stop stop-color="#956ED4"/>
<stop offset="1" stop-color="#A8AEBC"/>
</linearGradient>
</defs>
</svg>
