<svg width="24" height="25" viewBox="0 0 24 25" fill="none" xmlns="http://www.w3.org/2000/svg">
<path fill-rule="evenodd" clip-rule="evenodd" d="M3.73613 6.84725C5.17821 6.84725 6.34725 5.67821 6.34725 4.23613C6.34725 2.79404 5.17821 1.625 3.73613 1.625C2.29404 1.625 1.125 2.79404 1.125 4.23613C1.125 5.67821 2.29404 6.84725 3.73613 6.84725ZM22.9279 23.3741V15.1376C22.9279 12.7554 22.5666 10.8481 21.3665 9.75646C20.4517 8.92196 19.1859 8.35651 16.7908 8.47524C14.6896 8.58115 13.4349 10.4142 13.2034 10.7866L13.1394 8.78444H8.82422V23.3733H13.3589V15.7287L13.3512 15.5006C13.3879 14.8814 13.487 14.0323 13.9107 13.3866C14.4231 12.6059 15.4208 12.336 16.468 12.447C18.0293 12.6085 18.3659 14.2501 18.3659 15.0172V23.375L22.9279 23.3741ZM1.44873 8.78539H5.97058V23.3742H1.44873V8.78539Z" fill="white"/>
</svg>
