<svg width="224" height="28" viewBox="0 0 224 28" fill="none" xmlns="http://www.w3.org/2000/svg">
<path fill-rule="evenodd" clip-rule="evenodd" d="M11.5276 1.65858C11.6218 1.5867 11.7524 1.5867 11.8466 1.65858L21.521 9.04097C21.659 9.14622 21.659 9.35382 21.521 9.45907L11.6871 16.9632L1.85313 9.45907C1.71521 9.35382 1.71521 9.14622 1.85313 9.04098L11.5276 1.65858ZM20.9301 17.1334L17.354 14.4045L17.285 14.3519L13.64 17.1334H20.9301ZM18.373 13.5217L22.3218 16.535C23.152 17.1685 23.152 18.4183 22.3218 19.0518L12.6474 26.4342C12.0803 26.8669 11.2939 26.8669 10.7268 26.4342L1.05237 19.0518C0.222128 18.4183 0.222128 17.1685 1.05237 16.535L5.00118 13.5217L1.05237 10.5084C0.222129 9.8749 0.222127 8.62514 1.05237 7.9916L10.7268 0.609206C11.2939 0.176489 12.0803 0.176488 12.6474 0.609206L22.3218 7.9916C23.152 8.62514 23.152 9.8749 22.3218 10.5084L18.373 13.5217ZM6.08914 14.3519L6.02019 14.4045L1.85313 17.5844C1.71521 17.6896 1.71521 17.8972 1.85313 18.0024L11.5276 25.3848C11.6218 25.4567 11.7524 25.4567 11.8466 25.3848L20.9301 18.4534H11.6871H11.464L11.2867 18.3181L6.08914 14.3519Z" fill="white"/>
<path d="M212.276 20.3383H213.771V9.19958L222.546 20.3383H223.773V6.74703H222.278V17.643L213.72 6.74703H212.289V20.3383H212.276ZM194.456 15.3565L197.561 8.44593L200.652 15.3565H194.456ZM190.663 20.3383H192.234L193.843 16.7489H201.239L202.836 20.3383H204.484L198.289 6.64484H196.858L190.663 20.3383ZM169.867 20.3383H171.361V9.35287L176.317 16.6083H176.394L181.35 9.32732V20.3383H182.883V6.74703H181.325L176.368 14.1686L171.425 6.74703H169.867V20.3383ZM155.458 20.5554C158.855 20.5554 161.129 18.4989 161.129 14.539V6.74703H159.596V14.654C159.596 17.6302 158 19.1375 155.496 19.1375C152.915 19.1375 151.344 17.4897 151.344 14.5518V6.74703H149.811V14.654C149.811 18.4989 152.098 20.5554 155.458 20.5554ZM130.152 20.3383H131.685V14.2197H139.528V20.3383H141.061V6.74703H139.528V12.789H131.685V6.74703H130.152V20.3383ZM112.537 13.6832V8.16491H116.727C118.924 8.16491 120.201 9.17403 120.201 10.8474V10.8857C120.201 12.6357 118.745 13.6832 116.701 13.6832H112.537ZM111.004 20.3383H112.537V15.0627H116.42L120.367 20.3383H122.245L118.068 14.7817C120.201 14.3985 121.76 13.07 121.76 10.8218V10.7835C121.76 9.71053 121.377 8.76527 120.712 8.10104C119.856 7.2452 118.515 6.74703 116.855 6.74703H111.004V20.3383ZM92.8906 20.3383H102.816V18.9459H94.4235V14.1813H101.845V12.789H94.4235V8.15214H102.714V6.74703H92.8906V20.3383ZM76.3356 14.143V8.16491H79.7717C81.9689 8.16491 83.4251 9.17403 83.4251 11.1156V11.154C83.4251 12.9423 81.9433 14.143 79.6951 14.143H76.3356ZM74.8027 20.3383H76.3356V15.5481H79.6312C82.5182 15.5481 84.9708 14.028 84.9708 11.1029V11.0645C84.9708 8.38206 82.9525 6.7598 79.8867 6.7598H74.8027V20.3383ZM60.3936 20.5554C63.7915 20.5554 66.0653 18.4989 66.0653 14.539V6.74703H64.5324V14.654C64.5324 17.6302 62.9357 19.1375 60.432 19.1375C57.8516 19.1375 56.2804 17.4897 56.2804 14.5518V6.74703H54.7475V14.654C54.7475 18.4989 57.0341 20.5554 60.3936 20.5554ZM42.0885 20.5299C44.7838 20.5299 46.7255 19.0098 46.7255 16.685V16.6467C46.7255 14.5645 45.3331 13.466 42.2929 12.8018C39.3038 12.1631 38.6012 11.4478 38.6012 10.1576V10.1321C38.6012 8.90578 39.7254 7.93498 41.4882 7.93498C42.8805 7.93498 44.1451 8.38206 45.4098 9.41673L46.3039 8.22878C44.9371 7.11746 43.5192 6.55542 41.5393 6.55542C38.9589 6.55542 37.0684 8.12659 37.0684 10.2598V10.2981C37.0684 12.5335 38.4991 13.5426 41.6287 14.2197C44.4773 14.82 45.1671 15.5353 45.1671 16.7999V16.8383C45.1671 18.1795 43.9663 19.1503 42.1396 19.1503C40.2619 19.1503 38.895 18.5116 37.4771 17.2343L36.5319 18.3583C38.1669 19.8145 39.9297 20.5299 42.0885 20.5299Z" fill="white"/>
</svg>
