<svg width="145" height="18" viewBox="0 0 145 18" fill="none" xmlns="http://www.w3.org/2000/svg">
<path fill-rule="evenodd" clip-rule="evenodd" d="M7.43313 1.06951C7.49387 1.02316 7.57811 1.02316 7.63885 1.06951L13.8771 5.82979C13.966 5.89765 13.966 6.03152 13.8771 6.09938L7.53599 10.9382L1.1949 6.09938C1.10596 6.03152 1.10596 5.89765 1.19489 5.82979L7.43313 1.06951ZM13.496 11.0479L11.1901 9.2883L11.1456 9.25437L8.79524 11.0479H13.496ZM11.8472 8.71904L14.3934 10.662C14.9288 11.0706 14.9288 11.8764 14.3934 12.2849L8.1552 17.0452C7.78954 17.3242 7.28244 17.3242 6.91679 17.0452L0.678552 12.2849C0.143201 11.8764 0.143201 11.0706 0.678553 10.662L3.22481 8.71904L0.678553 6.77603C0.143201 6.36752 0.1432 5.56166 0.678552 5.15314L6.91679 0.392861C7.28244 0.113838 7.78954 0.113838 8.1552 0.392861L14.3934 5.15314C14.9288 5.56166 14.9288 6.36752 14.3934 6.77603L11.8472 8.71904ZM3.92635 9.25437L3.88188 9.2883L1.1949 11.3387C1.10596 11.4066 1.10596 11.5404 1.1949 11.6083L7.43313 16.3686C7.49387 16.4149 7.57811 16.4149 7.63885 16.3686L13.496 11.8991H7.53599H7.39216L7.27782 11.8118L3.92635 9.25437Z" fill="white"/>
<path d="M136.879 13.1146H137.843V5.93217L143.502 13.1146H144.292V4.35072H143.329V11.3766L137.81 4.35072H136.887V13.1146H136.879ZM125.389 9.90225L127.39 5.4462L129.384 9.90225H125.389ZM122.942 13.1146H123.955L124.993 10.8H129.762L130.792 13.1146H131.855L127.86 4.28483H126.937L122.942 13.1146ZM109.533 13.1146H110.496V6.03101L113.692 10.7094H113.742L116.938 6.01453V13.1146H117.926V4.35072H116.921L113.725 9.13624L110.538 4.35072H109.533V13.1146ZM100.242 13.2546C102.433 13.2546 103.899 11.9285 103.899 9.3751V4.35072H102.91V9.44923C102.91 11.3684 101.881 12.3403 100.266 12.3403C98.6024 12.3403 97.5893 11.2778 97.5893 9.38334V4.35072H96.6009V9.44923C96.6009 11.9285 98.0753 13.2546 100.242 13.2546ZM83.9243 13.1146H84.9128V9.16918H89.9702V13.1146H90.9586V4.35072H89.9702V8.24668H84.9128V4.35072H83.9243V13.1146ZM72.5657 8.82324V5.26499H75.2674C76.6841 5.26499 77.5078 5.91569 77.5078 6.9947V7.01941C77.5078 8.14783 76.5688 8.82324 75.2509 8.82324H72.5657ZM71.5773 13.1146H72.5657V9.7128H75.0697L77.6149 13.1146H78.8257L76.1322 9.5316C77.5078 9.2845 78.5127 8.42788 78.5127 6.97823V6.95352C78.5127 6.26163 78.2656 5.65212 77.8373 5.22381C77.2854 4.67195 76.4205 4.35072 75.3497 4.35072H71.5773V13.1146ZM59.8974 13.1146H66.2974V12.2168H60.8858V9.14447H65.6714V8.24668H60.8858V5.25676H66.2315V4.35072H59.8974V13.1146ZM49.2224 9.11976V5.26499H51.4381C52.8549 5.26499 53.7939 5.91569 53.7939 7.16767V7.19238C53.7939 8.34552 52.8384 9.11976 51.3887 9.11976H49.2224ZM48.234 13.1146H49.2224V10.0258H51.3475C53.2091 10.0258 54.7905 9.04563 54.7905 7.15943V7.13472C54.7905 5.40502 53.4891 4.35896 51.5123 4.35896H48.234V13.1146ZM38.9428 13.2546C41.1338 13.2546 42.6 11.9285 42.6 9.3751V4.35072H41.6115V9.44923C41.6115 11.3684 40.5819 12.3403 38.9675 12.3403C37.3037 12.3403 36.2905 11.2778 36.2905 9.38334V4.35072H35.3021V9.44923C35.3021 11.9285 36.7765 13.2546 38.9428 13.2546ZM27.1394 13.2381C28.8774 13.2381 30.1294 12.2579 30.1294 10.7589V10.7342C30.1294 9.39157 29.2315 8.68322 27.2712 8.25491C25.3437 7.84308 24.8907 7.38182 24.8907 6.54992V6.53344C24.8907 5.74272 25.6156 5.11673 26.7522 5.11673C27.6501 5.11673 28.4655 5.40502 29.281 6.07219L29.8575 5.30618C28.9762 4.58959 28.0619 4.22717 26.7852 4.22717C25.1213 4.22717 23.9023 5.24029 23.9023 6.61581V6.64052C23.9023 8.08194 24.8248 8.73264 26.8428 9.16918C28.6797 9.55631 29.1245 10.0176 29.1245 10.833V10.8577C29.1245 11.7226 28.3502 12.3485 27.1723 12.3485C25.9615 12.3485 25.0802 11.9367 24.1659 11.113L23.5563 11.8379C24.6107 12.7769 25.7473 13.2381 27.1394 13.2381Z" fill="white"/>
</svg>
