<svg width="128" height="16" viewBox="0 0 128 16" fill="none" xmlns="http://www.w3.org/2000/svg">
<path fill-rule="evenodd" clip-rule="evenodd" d="M6.58054 0.946903C6.63432 0.905869 6.70889 0.905869 6.76267 0.946903L12.2854 5.16119C12.3641 5.22127 12.3641 5.33978 12.2854 5.39986L6.6716 9.68363L1.05782 5.39986C0.979088 5.33978 0.979088 5.22126 1.05782 5.16119L6.58054 0.946903ZM11.948 9.78079L9.90659 8.22301L9.86723 8.19297L7.78642 9.78079H11.948ZM10.4883 7.71904L12.7425 9.43918C13.2165 9.80084 13.2165 10.5143 12.7425 10.8759L7.21979 15.0902C6.89607 15.3372 6.44714 15.3372 6.12342 15.0902L0.6007 10.8759C0.126752 10.5143 0.126752 9.80084 0.6007 9.43918L2.85491 7.71904L0.6007 5.9989C0.126753 5.63724 0.126752 4.92381 0.6007 4.56215L6.12342 0.347862C6.44713 0.100843 6.89607 0.100843 7.21979 0.347862L12.7425 4.56215C13.2165 4.92381 13.2165 5.63724 12.7425 5.9989L10.4883 7.71904ZM3.47598 8.19297L3.43662 8.22301L1.05782 10.0382C0.979088 10.0983 0.979088 10.2168 1.05782 10.2769L6.58054 14.4912C6.63432 14.5322 6.70889 14.5322 6.76267 14.4912L11.948 10.5343H6.6716H6.54427L6.44304 10.4571L3.47598 8.19297Z" fill="white"/>
<path d="M121.179 11.6103H122.033V5.25174L127.042 11.6103H127.742V3.85169H126.889V10.0717L122.003 3.85169H121.187V11.6103H121.179ZM111.007 8.76647L112.779 4.82152L114.544 8.76647H111.007ZM108.841 11.6103H109.738L110.657 9.56129H114.879L115.791 11.6103H116.731L113.195 3.79335H112.378L108.841 11.6103ZM96.9696 11.6103H97.8227V5.33925L100.652 9.48108H100.696L103.525 5.32466V11.6103H104.4V3.85169H103.511L100.681 8.08831L97.8592 3.85169H96.9696V11.6103ZM88.7441 11.7343C90.6838 11.7343 91.9818 10.5603 91.9818 8.29978V3.85169H91.1067V8.36541C91.1067 10.0644 90.1952 10.9249 88.7659 10.9249C87.2929 10.9249 86.396 9.98422 86.396 8.30707V3.85169H85.521V8.36541C85.521 10.5603 86.8262 11.7343 88.7441 11.7343ZM74.2984 11.6103H75.1734V8.11748H79.6508V11.6103H80.5258V3.85169H79.6508V7.30078H75.1734V3.85169H74.2984V11.6103ZM64.2426 7.81122V4.6611H66.6344C67.8886 4.6611 68.6178 5.23716 68.6178 6.19241V6.21428C68.6178 7.21328 67.7865 7.81122 66.6198 7.81122H64.2426ZM63.3675 11.6103H64.2426V8.59875H66.4594L68.7126 11.6103H69.7846L67.4 8.43833C68.6178 8.21957 69.5075 7.46121 69.5075 6.17782V6.15595C69.5075 5.54342 69.2887 5.00382 68.9095 4.62464C68.4209 4.13607 67.6553 3.85169 66.7073 3.85169H63.3675V11.6103ZM53.0273 11.6103H58.6933V10.8155H53.9023V8.0956H58.1391V7.30078H53.9023V4.6538H58.6349V3.85169H53.0273V11.6103ZM43.5767 8.07373V4.6611H45.5383C46.7925 4.6611 47.6238 5.23716 47.6238 6.34554V6.36741C47.6238 7.38829 46.778 8.07373 45.4945 8.07373H43.5767ZM42.7017 11.6103H43.5767V8.87584H45.4581C47.1061 8.87584 48.5062 8.0081 48.5062 6.33824V6.31637C48.5062 4.78506 47.354 3.85898 45.6039 3.85898H42.7017V11.6103ZM34.4762 11.7343C36.4159 11.7343 37.7139 10.5603 37.7139 8.29978V3.85169H36.8388V8.36541C36.8388 10.0644 35.9273 10.9249 34.498 10.9249C33.025 10.9249 32.1281 9.98422 32.1281 8.30707V3.85169H31.253V8.36541C31.253 10.5603 32.5583 11.7343 34.4762 11.7343ZM24.0266 11.7197C25.5652 11.7197 26.6736 10.852 26.6736 9.52483V9.50295C26.6736 8.31436 25.8788 7.68726 24.1432 7.30807C22.4369 6.94348 22.0358 6.53513 22.0358 5.79864V5.78406C22.0358 5.08403 22.6775 4.52984 23.6838 4.52984C24.4787 4.52984 25.2006 4.78506 25.9225 5.37571L26.433 4.69756C25.6527 4.06316 24.8433 3.74231 23.713 3.74231C22.24 3.74231 21.1608 4.63922 21.1608 5.85698V5.87885C21.1608 7.15494 21.9775 7.73101 23.764 8.11748C25.3902 8.4602 25.784 8.86855 25.784 9.59046V9.61233C25.784 10.378 25.0985 10.9322 24.0557 10.9322C22.9838 10.9322 22.2035 10.5676 21.3941 9.83838L20.8545 10.4801C21.7879 11.3114 22.7942 11.7197 24.0266 11.7197Z" fill="white"/>
</svg>
