<svg width="48" height="48" viewBox="0 0 48 48" fill="none" xmlns="http://www.w3.org/2000/svg">
<rect x="30" y="40" width="4" height="6" fill="url(#paint0_linear_843_6845)"/>
<path fill-rule="evenodd" clip-rule="evenodd" d="M34 40H28H16H4.00002V16C4.00002 9.37258 9.3726 4 16 4H34V40ZM8 40.0001H4V46.0001H8V40.0001Z" fill="url(#paint1_linear_843_6845)"/>
<path fill-rule="evenodd" clip-rule="evenodd" d="M27.3644 6C24.131 8.14985 22 11.826 22 16H30V16H6C6 10.4772 10.4772 6 16 6H27.3644Z" fill="url(#paint2_linear_843_6845)"/>
<g filter="url(#filter0_i_843_6845)">
<path d="M22.0001 16L22.0001 2H10V16H22.0001Z" fill="url(#paint3_linear_843_6845)"/>
<g filter="url(#filter1_ii_843_6845)">
<path d="M8 3.00001C8 2.44772 8.44772 2 9.00001 2H11.4511C11.793 2 12.1112 2.17468 12.2948 2.46313L18.6585 12.4632C18.8669 12.7908 18.8669 13.2094 18.6585 13.537L17.0911 16H8V3.00001Z" fill="url(#paint4_linear_843_6845)"/>
<path d="M8 3.00001C8 2.44772 8.44772 2 9.00001 2H11.4511C11.793 2 12.1112 2.17468 12.2948 2.46313L18.6585 12.4632C18.8669 12.7908 18.8669 13.2094 18.6585 13.537L17.0911 16H8V3.00001Z" fill="url(#paint5_linear_843_6845)" fill-opacity="0.1"/>
</g>
<g filter="url(#filter2_ii_843_6845)">
<path d="M24.0001 3.00001C24.0001 2.44772 23.5524 2 23.0001 2H20.549C20.2071 2 19.8889 2.17468 19.7054 2.46313L13.3416 12.4632C13.1332 12.7908 13.1332 13.2094 13.3416 13.537L14.909 16H24.0001L24.0001 3.00001Z" fill="url(#paint6_linear_843_6845)"/>
</g>
</g>
<path fill-rule="evenodd" clip-rule="evenodd" d="M46 16C46 9.37258 40.6274 4 34 4C27.3726 4 22 9.37258 22 16L22 40V46H26V40H42V46H46L46 40V16Z" fill="url(#paint7_linear_843_6845)"/>
<path d="M42 16C42 11.5817 38.4183 8 34 8C29.5817 8 26 11.5817 26 16V40H42V16Z" fill="url(#paint8_linear_843_6845)"/>
<defs>
<filter id="filter0_i_843_6845" x="8" y="2" width="16" height="14.5" filterUnits="userSpaceOnUse" color-interpolation-filters="sRGB">
<feFlood flood-opacity="0" result="BackgroundImageFix"/>
<feBlend mode="normal" in="SourceGraphic" in2="BackgroundImageFix" result="shape"/>
<feColorMatrix in="SourceAlpha" type="matrix" values="0 0 0 0 0 0 0 0 0 0 0 0 0 0 0 0 0 0 127 0" result="hardAlpha"/>
<feOffset dy="0.5"/>
<feGaussianBlur stdDeviation="0.5"/>
<feComposite in2="hardAlpha" operator="arithmetic" k2="-1" k3="1"/>
<feColorMatrix type="matrix" values="0 0 0 0 0 0 0 0 0 0 0 0 0 0 0 0 0 0 0.3 0"/>
<feBlend mode="normal" in2="shape" result="effect1_innerShadow_843_6845"/>
</filter>
<filter id="filter1_ii_843_6845" x="8" y="2" width="10.8147" height="14.5" filterUnits="userSpaceOnUse" color-interpolation-filters="sRGB">
<feFlood flood-opacity="0" result="BackgroundImageFix"/>
<feBlend mode="normal" in="SourceGraphic" in2="BackgroundImageFix" result="shape"/>
<feColorMatrix in="SourceAlpha" type="matrix" values="0 0 0 0 0 0 0 0 0 0 0 0 0 0 0 0 0 0 127 0" result="hardAlpha"/>
<feOffset dy="1.00001"/>
<feGaussianBlur stdDeviation="0.250003"/>
<feComposite in2="hardAlpha" operator="arithmetic" k2="-1" k3="1"/>
<feColorMatrix type="matrix" values="0 0 0 0 0.766667 0 0 0 0 0.766667 0 0 0 0 0.766667 0 0 0 0.3 0"/>
<feBlend mode="normal" in2="shape" result="effect1_innerShadow_843_6845"/>
<feColorMatrix in="SourceAlpha" type="matrix" values="0 0 0 0 0 0 0 0 0 0 0 0 0 0 0 0 0 0 127 0" result="hardAlpha"/>
<feOffset dy="0.2"/>
<feGaussianBlur stdDeviation="0.250003"/>
<feComposite in2="hardAlpha" operator="arithmetic" k2="-1" k3="1"/>
<feColorMatrix type="matrix" values="0 0 0 0 0 0 0 0 0 0 0 0 0 0 0 0 0 0 0.25 0"/>
<feBlend mode="normal" in2="effect1_innerShadow_843_6845" result="effect2_innerShadow_843_6845"/>
</filter>
<filter id="filter2_ii_843_6845" x="13.1853" y="2" width="11.3147" height="14.2" filterUnits="userSpaceOnUse" color-interpolation-filters="sRGB">
<feFlood flood-opacity="0" result="BackgroundImageFix"/>
<feBlend mode="normal" in="SourceGraphic" in2="BackgroundImageFix" result="shape"/>
<feColorMatrix in="SourceAlpha" type="matrix" values="0 0 0 0 0 0 0 0 0 0 0 0 0 0 0 0 0 0 127 0" result="hardAlpha"/>
<feOffset dx="1"/>
<feGaussianBlur stdDeviation="0.250003"/>
<feComposite in2="hardAlpha" operator="arithmetic" k2="-1" k3="1"/>
<feColorMatrix type="matrix" values="0 0 0 0 1 0 0 0 0 1 0 0 0 0 1 0 0 0 1 0"/>
<feBlend mode="normal" in2="shape" result="effect1_innerShadow_843_6845"/>
<feColorMatrix in="SourceAlpha" type="matrix" values="0 0 0 0 0 0 0 0 0 0 0 0 0 0 0 0 0 0 127 0" result="hardAlpha"/>
<feOffset dy="0.2"/>
<feGaussianBlur stdDeviation="0.250003"/>
<feComposite in2="hardAlpha" operator="arithmetic" k2="-1" k3="1"/>
<feColorMatrix type="matrix" values="0 0 0 0 0 0 0 0 0 0 0 0 0 0 0 0 0 0 0.25 0"/>
<feBlend mode="normal" in2="effect1_innerShadow_843_6845" result="effect2_innerShadow_843_6845"/>
</filter>
<linearGradient id="paint0_linear_843_6845" x1="32.7643" y1="40" x2="32.7643" y2="46" gradientUnits="userSpaceOnUse">
<stop stop-color="#003553"/>
<stop offset="1" stop-color="#005888"/>
</linearGradient>
<linearGradient id="paint1_linear_843_6845" x1="19" y1="4" x2="19" y2="40" gradientUnits="userSpaceOnUse">
<stop stop-color="#27B3FF"/>
<stop offset="0.167414" stop-color="#8ED7FF"/>
<stop offset="1" stop-color="#5CC3FA"/>
</linearGradient>
<linearGradient id="paint2_linear_843_6845" x1="19.4804" y1="6" x2="19.4804" y2="16" gradientUnits="userSpaceOnUse">
<stop stop-color="#003553"/>
<stop offset="1" stop-color="#005888"/>
</linearGradient>
<linearGradient id="paint3_linear_843_6845" x1="19" y1="5" x2="15" y2="2" gradientUnits="userSpaceOnUse">
<stop offset="0.152791" stop-color="#E1E1E1"/>
<stop offset="0.551846" stop-color="white"/>
</linearGradient>
<linearGradient id="paint4_linear_843_6845" x1="16.0001" y1="13.3326" x2="10" y2="13.3326" gradientUnits="userSpaceOnUse">
<stop offset="0.302083" stop-color="#DFDFDF"/>
<stop offset="1" stop-color="white"/>
</linearGradient>
<linearGradient id="paint5_linear_843_6845" x1="16" y1="9.99938" x2="12.274" y2="8.60203" gradientUnits="userSpaceOnUse">
<stop/>
<stop offset="1" stop-color="white" stop-opacity="0"/>
</linearGradient>
<linearGradient id="paint6_linear_843_6845" x1="22.0002" y1="13" x2="11.0002" y2="13" gradientUnits="userSpaceOnUse">
<stop stop-color="white"/>
<stop offset="1" stop-color="#DBDBDB"/>
</linearGradient>
<linearGradient id="paint7_linear_843_6845" x1="34" y1="4" x2="34" y2="46" gradientUnits="userSpaceOnUse">
<stop stop-color="#5CC3FA"/>
<stop offset="1" stop-color="#087DBD"/>
</linearGradient>
<linearGradient id="paint8_linear_843_6845" x1="30.9429" y1="8" x2="30.9429" y2="40" gradientUnits="userSpaceOnUse">
<stop stop-color="#003553" stop-opacity="0.5"/>
<stop offset="1" stop-color="#1588C7" stop-opacity="0"/>
</linearGradient>
</defs>
</svg>
