<svg width="48" height="48" viewBox="0 0 48 48" fill="none" xmlns="http://www.w3.org/2000/svg">
<path d="M10.1013 46.4662C14.5644 46.4662 18.1824 42.8482 18.1824 38.3852C18.1824 33.9221 14.5644 30.3041 10.1013 30.3041C5.63829 30.3041 2.02026 33.9221 2.02026 38.3852V46.4662L10.1013 42.4257V46.4662Z" fill="url(#paint0_radial_3_1320)"/>
<path d="M10.1013 46.4662C14.5644 46.4662 18.1824 42.8482 18.1824 38.3852C18.1824 33.9221 14.5644 30.3041 10.1013 30.3041C5.63829 30.3041 2.02026 33.9221 2.02026 38.3852V46.4662L10.1013 42.4257V46.4662Z" fill="url(#paint1_radial_3_1320)" fill-opacity="0.7"/>
<path d="M22.223 37.375L11.1115 26.2635C11.1115 26.2635 8.39509 28.4801 8.08109 30.3041L18.1824 40.4054C20.0064 40.0914 22.223 37.375 22.223 37.375Z" fill="url(#paint2_linear_3_1320)"/>
<path d="M22.223 37.375L11.1115 26.2635C11.1115 26.2635 8.39509 28.4801 8.08109 30.3041L18.1824 40.4054C20.0064 40.0914 22.223 37.375 22.223 37.375Z" fill="url(#paint3_linear_3_1320)"/>
<path d="M42.9697 3.01928C44.4937 2.58386 45.9026 3.99284 45.4672 5.51683L42.4257 16.1622L32.3243 6.0608L42.9697 3.01928Z" fill="url(#paint4_linear_3_1320)"/>
<path fill-rule="evenodd" clip-rule="evenodd" d="M13.1318 23.2331L7.07095 17.1723L11.4284 12.8148C14.4594 9.78385 18.5703 8.08105 22.8568 8.08105H28.2838L13.1318 23.2331ZM25.2534 35.3547L31.3142 41.4155L34.5757 38.1541C37.0484 35.6813 38.6525 32.4732 39.147 29.0114L40.4054 20.2027L25.2534 35.3547Z" fill="url(#paint5_linear_3_1320)"/>
<path d="M23.7382 38.8902L35.8879 26.7404C38.8588 23.7696 41.0971 20.1479 42.4257 16.1621L32.3243 6.06079C28.3386 7.38938 24.7169 9.62771 21.7461 12.5985L9.59628 24.7483L23.7382 38.8902Z" fill="url(#paint6_radial_3_1320)"/>
<circle cx="28.2838" cy="20.2027" r="6.06081" fill="url(#paint7_radial_3_1320)"/>
<circle cx="28.2838" cy="20.2027" r="6.06081" fill="url(#paint8_linear_3_1320)"/>
<defs>
<radialGradient id="paint0_radial_3_1320" cx="0" cy="0" r="1" gradientUnits="userSpaceOnUse" gradientTransform="translate(8.08107 40.4054) rotate(135) scale(12.8569)">
<stop stop-color="#FFC612"/>
<stop offset="1" stop-color="#FE6277"/>
</radialGradient>
<radialGradient id="paint1_radial_3_1320" cx="0" cy="0" r="1" gradientUnits="userSpaceOnUse" gradientTransform="translate(7.07094 41.4156) rotate(135) scale(9.99983)">
<stop offset="0.481509" stop-color="#FFC612" stop-opacity="0"/>
<stop offset="1" stop-color="#CB1B1B"/>
</radialGradient>
<linearGradient id="paint2_linear_3_1320" x1="7.65748" y1="27.2737" x2="21.2128" y2="40.829" gradientUnits="userSpaceOnUse">
<stop stop-color="#501AA7"/>
<stop offset="0.25" stop-color="#612EB2"/>
<stop offset="0.5" stop-color="#8655D6"/>
<stop offset="0.75" stop-color="#612EB2"/>
<stop offset="1" stop-color="#501AA7"/>
</linearGradient>
<linearGradient id="paint3_linear_3_1320" x1="17.1723" y1="31.3142" x2="14.1419" y2="34.3446" gradientUnits="userSpaceOnUse">
<stop stop-color="#33185D"/>
<stop offset="1" stop-color="#33185D" stop-opacity="0"/>
</linearGradient>
<linearGradient id="paint4_linear_3_1320" x1="33.0738" y1="5.05067" x2="43.4358" y2="15.4127" gradientUnits="userSpaceOnUse">
<stop stop-color="#33185D"/>
<stop offset="0.2" stop-color="#612EB2"/>
<stop offset="0.457099" stop-color="#8655D6"/>
<stop offset="0.539842" stop-color="#8655D6"/>
<stop offset="0.8" stop-color="#612EB2"/>
<stop offset="1" stop-color="#33185D"/>
</linearGradient>
<linearGradient id="paint5_linear_3_1320" x1="8.14626" y1="14.5329" x2="33.9536" y2="40.3402" gradientUnits="userSpaceOnUse">
<stop stop-color="#8655D6"/>
<stop offset="0.142857" stop-color="#612EB2"/>
<stop offset="0.285714" stop-color="#33185D"/>
<stop offset="0.428571"/>
<stop offset="0.571429"/>
<stop offset="0.714286" stop-color="#33185D"/>
<stop offset="0.857143" stop-color="#612EB2"/>
<stop offset="1" stop-color="#8655D6"/>
</linearGradient>
<radialGradient id="paint6_radial_3_1320" cx="0" cy="0" r="1" gradientUnits="userSpaceOnUse" gradientTransform="translate(25.2534 23.2331) rotate(45) scale(11.4284 57.9448)">
<stop offset="0.725228" stop-color="white"/>
<stop offset="0.909575" stop-color="#6E77C8"/>
</radialGradient>
<radialGradient id="paint7_radial_3_1320" cx="0" cy="0" r="1" gradientUnits="userSpaceOnUse" gradientTransform="translate(28.2838 20.2027) rotate(90) scale(6.06081)">
<stop stop-color="#501AA7"/>
<stop offset="0.333333" stop-color="#612EB2"/>
<stop offset="0.666667" stop-color="#AC80F3"/>
<stop offset="1" stop-color="#501AA7"/>
</radialGradient>
<linearGradient id="paint8_linear_3_1320" x1="32.3243" y1="16.1621" x2="24.2432" y2="24.2432" gradientUnits="userSpaceOnUse">
<stop stop-color="#33185D"/>
<stop offset="1" stop-color="#33185D" stop-opacity="0"/>
</linearGradient>
</defs>
</svg>
