<svg width="24" height="25" viewBox="0 0 24 25" fill="none" xmlns="http://www.w3.org/2000/svg">
<g clip-path="url(#clip0_652_1337)">
<path d="M7.55016 22.25C16.6045 22.25 21.5583 14.7467 21.5583 8.24186C21.5583 8.03092 21.5536 7.8153 21.5442 7.60436C22.5079 6.90746 23.3395 6.04425 24 5.0553C23.1025 5.4546 22.1496 5.71538 21.1739 5.82874C22.2013 5.21291 22.9705 4.24547 23.3391 3.10577C22.3726 3.67856 21.3156 4.08261 20.2134 4.30061C19.4708 3.51156 18.489 2.98912 17.4197 2.81405C16.3504 2.63899 15.2532 2.82105 14.2977 3.3321C13.3423 3.84314 12.5818 4.65471 12.1338 5.64131C11.6859 6.62792 11.5754 7.73462 11.8195 8.7903C9.86249 8.69209 7.94794 8.1837 6.19998 7.2981C4.45203 6.41249 2.90969 5.16944 1.67297 3.64952C1.0444 4.73324 0.852057 6.01565 1.13503 7.23609C1.418 8.45654 2.15506 9.52345 3.19641 10.22C2.41463 10.1952 1.64998 9.98468 0.965625 9.60592V9.66686C0.964925 10.8041 1.3581 11.9066 2.07831 12.7868C2.79852 13.667 3.80132 14.2706 4.91625 14.495C4.19206 14.6931 3.43198 14.722 2.69484 14.5794C3.00945 15.5574 3.62157 16.4129 4.44577 17.0263C5.26997 17.6398 6.26512 17.9806 7.29234 18.0012C5.54842 19.3711 3.39417 20.1141 1.17656 20.1106C0.783287 20.11 0.390399 20.0859 0 20.0384C2.25286 21.4837 4.87353 22.2514 7.55016 22.25Z" fill="white"/>
</g>
<defs>
<clipPath id="clip0_652_1337">
<rect width="24" height="24" fill="none" transform="translate(0 0.5)"/>
</clipPath>
</defs>
</svg>
